<svg enable-background="new 0 0 400 400" viewBox="0 0 400 400" xmlns="http://www.w3.org/2000/svg">
  <style>
    g {
      fill: black;
      stroke: black;
      stroke-width: 6px;
    }
    @media (prefers-color-scheme: dark) {
      g {
        fill: white;
        stroke: black;
      }
    }
  </style>

  <g fill="#010102"><path d="m123.73 332.36c3.05-4.91 5.75-10.09 9.22-14.69 19.83-26.22 30.71-56.02 35.78-88.19 5.41-34.25 7.81-68.72 6.79-103.38-.3-10.09-.8-20.23-5.61-29.61-.96-1.86-1-5.45.18-6.79 1.17-1.33 4.43-1.14 6.75-1.03 2.29.1 4.79.47 6.77 1.53 6.9 3.68 13.05 1.86 19.83-.92 18.24-7.5 35.01-17 48.39-31.78 2-2.21 3.98-4.5 5.61-6.99 3.25-4.99 5.52-6.26 11.11-3.76 6.79 3.03 13.31 6.73 19.74 10.49 1.82 1.06 2.93 3.33 4.37 5.05-1.84 1.27-3.53 2.92-5.55 3.75-11.65 4.79-23.39 9.39-35.09 14.06-.59.23-1.11.63-2.2 1.25 5.3 2.15 10.22 3.85 14.87 6.09 6.81 3.28 7.05 4.52 5.21 11.6-1.03 3.96-1.43 8.08-2.24 12.91 9.49-.64 17.64-2.91 25.76-5.72 4.07-1.41 8.61-2.59 12.8-2.26 4.34.34 9.82 2.48 9.56 7.53-.11 2.25-5.59 5.53-9 6.09-12.55 2.05-25.25 3.16-38.72 4.72-.4 7.32-.86 15.84-1.4 25.69 14.37-4.45 27.58-8.82 40.97-12.54 4.07-1.13 9.2-1.89 12.85-.39 9.93 4.08 18.38 10.73 25.01 19.29 1.47 1.9 2.92 5.32 2.15 7.03-.73 1.61-4.39 2.61-6.78 2.65-9.97.17-18.78 3.7-27.38 8.25-3.12 1.65-6.44 2.93-9.66 4.38-.37-.43-.74-.87-1.11-1.3 2.07-4.01 4.12-8.02 6.21-12.01 4.89-9.35 4.89-13.2-8.18-12.79-14.31.45-28.53 3.53-42.79 5.47.01.45.01.89.02 1.34 3.26 1.68 6.57 3.26 9.77 5.05 3.42 1.91 4.15 4.44 2.65 8.36-1.81 4.72-2.62 9.81-4.07 15.55 6.2-1.51 11.26-2.87 16.37-3.91 2.41-.49 5.04-.82 7.4-.35 1.8.36 4.03 1.76 4.73 3.31.43.94-1.35 3.93-2.73 4.46-7.09 2.69-14.36 4.89-21.58 7.24-.94.3-1.92.46-2.82.66-1.33 6.64 1.88 11.79 9.08 11.77 9.72-.02 19.62-.86 29.1-2.94 10-2.2 11.09-11.71 12.95-19.99.64-2.84.99-5.75 2.68-8.81.84 3.19 1.81 6.34 2.49 9.56 1.47 7.03 2.99 13.9 8.58 19.2 2.88 2.72 1.98 6.31-1.14 8.07-5.13 2.9-10.5 5.77-16.14 7.34-15.28 4.24-30.68 2.75-45.87-.93-9.78-2.37-14.97-8.7-16.89-19.62-3.87-.28-7.91-.09-11.71-.99-3.61-.85-6.96-2.82-10.42-4.31.13-.78.25-1.56.38-2.34 4.74-.93 9.46-1.96 14.22-2.77 8.17-1.38 8.17-1.32 7.75-9.63-.29-5.81-.51-11.62-.82-17.43-.27-4.89-1.74-5.78-6.25-4.78-4.34.96-8.8 1.84-13.21 1.88-4.02.04-5.31 1-5.43 5.26-.82 28.12-3.9 55.98-10.97 83.29-5.83 22.52-15.02 43.32-31.22 60.49-5.63 5.97-12.04 10.77-20.71 12.75 18.97-24.69 33.73-51.14 38.91-82.15 5.06-30.3 10.27-60.54 1.11-92.2 3.86.78 7.87.89 11.26 2.4 10.68 4.73 21.16 2.71 31.67-.16 1.08-.3 2.56-1.86 2.59-2.87.41-18.31.72-36.62-3.92-54.57-.04-.16-.09-.32-.14-.48-2.43-7.53-2.37-7.34-9.94-4.63-12.19 4.36-24.45 8.55-36.76 12.55-2.58.84-3.77 1.58-3.84 4.59-.54 21.29-.7 42.62-2.17 63.85-2.35 33.98-5.46 67.9-17.65 100.22-9.29 24.63-24.22 44.98-45.02 61.05-1.62 1.25-3.52 2.12-5.28 3.17-.41-.41-.82-.82-1.23-1.23z"/><path d="m111.18 154.42c1.56 2.29 2.8 4.04 3.96 5.85 2.43 3.79 3.05 7.65 2.1 12.27-1.4 6.75-1.78 13.71-2.71 21.62 8.2-2.06 15.15-3.94 22.16-5.55 5.73-1.31 13.75 1.13 13.6 4.25-.28 5.73-5.52 7.57-9.79 8.33-8.05 1.45-16.33 1.63-25.55 2.42v59.47c12.63-5.17 25.09-12.7 39.57-14.14.29.4.59.8.88 1.2-2 1.64-3.82 3.56-6.02 4.87-12 7.15-24.18 14-36.11 21.24-15.07 9.14-29.97 18.55-44.92 27.88-1.4.87-2.67 1.99-3.9 3.1-6.97 6.28-9.74 6.65-17.48 1.1-4.71-3.38-9.2-7.16-13.34-11.21-3.18-3.11-2.37-4.91 1.92-6.12 8.13-2.29 16.3-4.48 24.33-7.07 1.32-.43 3.04-2.82 2.9-4.13-2.3-21.12-4.59-42.25-7.58-63.28-.77-5.42-3.95-10.48-5.95-15.73-.74-1.93-1.26-3.95-2.11-6.65 3.14 0 5.5-.47 7.59.09 5.59 1.51 11.13 3.26 16.55 5.31 4.16 1.57 5.19 4.85 4.63 9.3-1.12 9.01-2.25 18.08-2.33 27.14-.09 10.28.93 20.57 1.52 30.86.21 3.63.57 7.25.92 11.54 8.13-3.33 15.78-6.36 23.3-9.68.9-.4 1.56-2.42 1.55-3.67-.3-31.64-.66-63.27-1.16-94.9-.06-3.44-.74-6.97-1.77-10.26-1.32-4.24-3.69-4.68-7.06-1.82-.25.21-.49.45-.72.69-6.99 6.77-9.06 6.19-12.14-2.9-6.22-18.39-12.56-36.73-18.93-55.07-2.25-6.47.17-9.1 7.18-8.26 18.73 2.25 37.1-.32 53.71-8.82 7.39-3.78 13.05-4.72 19.66-.8 5.4 3.2 10.76 6.6 15.6 10.55 4.03 3.29 4.03 6.77.22 10.27-9.5 8.74-13.27 20.5-17.34 32.07-.51 1.44.66 3.9 1.73 5.4 3.78 5.3 3.14 7.63-3.15 8.84-8.3 1.59-16.66 2.88-25.52 4.4zm-23.5-4.81c10.89-2.47 21.16-4.92 31.49-7.07 3-.62 4.14-2.33 4.5-4.96 1.34-9.86 2.82-19.71 3.89-29.59 1.05-9.69-3.04-13.41-12.56-11.64-9.78 1.82-19.5 3.94-29.26 5.84-2.93.57-4.19 1.97-3.73 5.05.51 3.44.63 6.94 1.1 10.39 1.42 10.3 2.93 20.59 4.57 31.98z"/><path d="m185.79 353.16c2.18-1.93 4.32-3.9 6.54-5.79 12.7-10.77 26.18-21.13 34.16-35.99 11.21-20.88 16.01-43.17 9.25-66.8-1.65-5.77-.08-7.44 5.87-5.91 7.21 1.85 14.45 2.56 21.55.13 3.68-1.26 7.42-3.08 10.34-5.58 3.18-2.72 6.39-4.08 9.92-2.18 6.38 3.44 12.65 7.18 18.57 11.36 3.2 2.26 3.53 6.24-.05 8.41-10.88 6.63-13.45 17.45-14.34 28.64-.84 10.58-1.15 21.39.04 31.9 1.77 15.56 6.11 19.79 21.54 21.98 8.46 1.2 17.21.87 25.79.46 6.55-.31 11.01-3.88 12.34-10.91 1.61-8.47 3.65-16.86 5.55-25.28.42-1.87 1.02-3.7 1.54-5.55l1.59-.03c.68 4.37 1.3 8.76 2.07 13.12 1.03 5.88 1.79 11.85 3.44 17.55.93 3.2 2.99 6.36 5.31 8.82 3.36 3.55 2.79 6.47-.2 9.48-6.42 6.47-14.63 9.1-23.37 10-14.11 1.44-28.17.59-42.14-1.84-12.46-2.17-20.12-9.25-23.24-21.6-4.02-15.89-3.51-32.02-2.93-48.13.29-7.94 1.54-15.84 2.36-23.76.17-1.65.4-3.3.52-4.95.31-4.17-1.62-5.85-5.74-5.11-4.57.82-9.13 1.94-13.74 2.27-3.91.28-4.47 2.08-4.39 5.45.38 16.76-2.03 33.17-7.82 48.9-9.77 26.55-30.56 41.44-55.69 51.49-1.17.47-2.55.4-3.83.59-.28-.38-.54-.76-.81-1.14z"/></g></svg>
